<?xml version="1.0" encoding="utf-8"?>
<!-- Generator: Adobe Illustrator 24.3.0, SVG Export Plug-In . SVG Version: 6.00 Build 0)  -->
<svg version="1.1" id="圖層_1" xmlns="http://www.w3.org/2000/svg" xmlns:xlink="http://www.w3.org/1999/xlink" x="0px" y="0px"
	 viewBox="0 0 1920 1080" style="enable-background:new 0 0 1920 1080;" xml:space="preserve">
<style type="text/css">
	.st0{fill:#F9D6AF;enable-background:new    ;}
	.st1{opacity:0.52;}
	.st2{opacity:0.54;clip-path:url(#SVGID_2_);}
	.st3{opacity:0.55;clip-path:url(#SVGID_4_);}
	.st4{fill:#FFFFFF;}
	.st5{opacity:0.55;clip-path:url(#SVGID_6_);}
	.st6{opacity:0.55;clip-path:url(#SVGID_8_);}
	.st7{opacity:0.55;clip-path:url(#SVGID_10_);}
	.st8{opacity:0.55;clip-path:url(#SVGID_12_);}
	.st9{opacity:0.55;clip-path:url(#SVGID_14_);}
	.st10{opacity:0.55;clip-path:url(#SVGID_16_);}
	.st11{opacity:0.55;clip-path:url(#SVGID_18_);}
	.st12{opacity:0.55;clip-path:url(#SVGID_20_);}
	.st13{opacity:0.55;clip-path:url(#SVGID_22_);}
	.st14{opacity:0.82;fill:#F4A42F;enable-background:new    ;}
	.st15{font-family:'PingFangTC-Regular-B5pc-H';}
	.st16{font-size:58.2832px;}
	.st17{opacity:0.68;enable-background:new    ;}
	.st18{fill:#F4A42F;}
	.st19{fill:#545656;}
	.st20{fill:#54D2EF;}
	.st21{fill:#475356;}
	.st22{fill:#63D0EA;stroke:#F4F4F4;stroke-width:2;}
	.st23{fill:#303A6D;}
	.st24{fill:#4D578C;}
	.st25{fill:#86BFEC;}
	.st26{fill:#69B0E8;}
	.st27{fill:#E6FFFF;}
	.st28{fill:#D9F2FF;}
	.st29{opacity:9.000000e-02;clip-path:url(#SVGID_24_);fill:#FFFFFF;}
</style>
<circle class="st0" cx="960.3" cy="534.2" r="257.6"/>
<g class="st1">
	<defs>
		<circle id="SVGID_1_" class="st1" cx="963.3" cy="534.2" r="257.6"/>
	</defs>
	<clipPath id="SVGID_2_">
		<use xlink:href="#SVGID_1_"  style="overflow:visible;"/>
	</clipPath>
	<g class="st2">
		<g>
			<defs>
				<circle id="SVGID_3_" cx="960.3" cy="536.3" r="257.6"/>
			</defs>
			<clipPath id="SVGID_4_">
				<use xlink:href="#SVGID_3_"  style="overflow:visible;"/>
			</clipPath>
			<g class="st3">
				
					<ellipse transform="matrix(0.7507 -0.6607 0.6607 0.7507 -276.571 887.0427)" class="st4" cx="1037" cy="810" rx="50.6" ry="14.4"/>
				
					<ellipse transform="matrix(0.7507 -0.6607 0.6607 0.7507 -262.5139 894.5062)" class="st4" cx="1053.9" cy="795.1" rx="50.6" ry="14.4"/>
				
					<ellipse transform="matrix(0.7507 -0.6607 0.6607 0.7507 -248.46 901.9759)" class="st4" cx="1070.8" cy="780.2" rx="50.6" ry="14.4"/>
				
					<ellipse transform="matrix(0.7507 -0.6607 0.6607 0.7507 -234.409 909.436)" class="st4" cx="1087.7" cy="765.3" rx="50.6" ry="14.4"/>
				
					<ellipse transform="matrix(0.7507 -0.6607 0.6607 0.7507 -220.3518 916.8995)" class="st4" cx="1104.6" cy="750.4" rx="50.6" ry="14.4"/>
				
					<ellipse transform="matrix(0.7507 -0.6607 0.6607 0.7507 -206.3008 924.3597)" class="st4" cx="1121.5" cy="735.5" rx="50.6" ry="14.4"/>
				
					<ellipse transform="matrix(0.7507 -0.6607 0.6607 0.7507 -192.2469 931.8294)" class="st4" cx="1138.5" cy="720.6" rx="50.6" ry="14.4"/>
				
					<ellipse transform="matrix(0.7507 -0.6607 0.6607 0.7507 -178.1897 939.2928)" class="st4" cx="1155.4" cy="705.7" rx="50.6" ry="14.4"/>
				
					<ellipse transform="matrix(0.7507 -0.6607 0.6607 0.7507 -164.1387 946.7529)" class="st4" cx="1172.3" cy="690.8" rx="50.6" ry="14.4"/>
				
					<ellipse transform="matrix(0.7507 -0.6607 0.6607 0.7507 -150.0815 954.2164)" class="st4" cx="1189.2" cy="676" rx="50.6" ry="14.4"/>
				
					<ellipse transform="matrix(0.7507 -0.6607 0.6607 0.7507 -136.0338 961.6828)" class="st4" cx="1206.1" cy="661.1" rx="50.6" ry="14.4"/>
				
					<ellipse transform="matrix(0.7507 -0.6607 0.6607 0.7507 -121.9765 969.1462)" class="st4" cx="1223" cy="646.2" rx="50.6" ry="14.4"/>
			</g>
		</g>
		<g>
			<defs>
				<circle id="SVGID_5_" cx="960.3" cy="536.3" r="257.6"/>
			</defs>
			<clipPath id="SVGID_6_">
				<use xlink:href="#SVGID_5_"  style="overflow:visible;"/>
			</clipPath>
			<g class="st5">
				
					<ellipse transform="matrix(0.7507 -0.6607 0.6607 0.7507 -30.6678 689.2997)" class="st4" cx="897.9" cy="385.3" rx="50.6" ry="14.4"/>
				
					<ellipse transform="matrix(0.7507 -0.6607 0.6607 0.7507 -16.6139 696.7695)" class="st4" cx="914.9" cy="370.4" rx="50.6" ry="14.4"/>
				
					<ellipse transform="matrix(0.7507 -0.6607 0.6607 0.7507 -2.563 704.2296)" class="st4" cx="931.8" cy="355.5" rx="50.6" ry="14.4"/>
				
					<ellipse transform="matrix(0.7507 -0.6607 0.6607 0.7507 11.4943 711.6931)" class="st4" cx="948.7" cy="340.6" rx="50.6" ry="14.4"/>
				
					<ellipse transform="matrix(0.7507 -0.6607 0.6607 0.7507 25.5515 719.1565)" class="st4" cx="965.6" cy="325.7" rx="50.6" ry="14.4"/>
				
					<ellipse transform="matrix(0.7507 -0.6607 0.6607 0.7507 39.5991 726.6229)" class="st4" cx="982.5" cy="310.8" rx="50.6" ry="14.4"/>
				
					<ellipse transform="matrix(0.7507 -0.6607 0.6607 0.7507 53.6564 734.0864)" class="st4" cx="999.4" cy="296" rx="50.6" ry="14.4"/>
				
					<ellipse transform="matrix(0.7507 -0.6607 0.6607 0.7507 67.7072 741.5464)" class="st4" cx="1016.3" cy="281.1" rx="50.6" ry="14.4"/>
				
					<ellipse transform="matrix(0.7507 -0.6607 0.6607 0.7507 81.7645 749.0099)" class="st4" cx="1033.3" cy="266.2" rx="50.6" ry="14.4"/>
				
					<ellipse transform="matrix(0.7507 -0.6607 0.6607 0.7507 95.8185 756.4797)" class="st4" cx="1050.2" cy="251.3" rx="50.6" ry="14.4"/>
				
					<ellipse transform="matrix(0.7507 -0.6607 0.6607 0.7507 109.8694 763.9399)" class="st4" cx="1067.1" cy="236.4" rx="50.6" ry="14.4"/>
				
					<ellipse transform="matrix(0.7507 -0.6607 0.6607 0.7507 123.9266 771.4033)" class="st4" cx="1084" cy="221.5" rx="50.6" ry="14.4"/>
			</g>
		</g>
		<g>
			<defs>
				<circle id="SVGID_7_" cx="960.3" cy="536.3" r="257.6"/>
			</defs>
			<clipPath id="SVGID_8_">
				<use xlink:href="#SVGID_7_"  style="overflow:visible;"/>
			</clipPath>
			<g class="st6">
				
					<ellipse transform="matrix(0.7507 -0.6607 0.6607 0.7507 -90.548 722.3884)" class="st4" cx="911.8" cy="481.2" rx="50.6" ry="14.4"/>
				
					<ellipse transform="matrix(0.7507 -0.6607 0.6607 0.7507 -76.4908 729.8518)" class="st4" cx="928.7" cy="466.3" rx="50.6" ry="14.4"/>
				
					<ellipse transform="matrix(0.7507 -0.6607 0.6607 0.7507 -62.4336 737.3152)" class="st4" cx="945.7" cy="451.4" rx="50.6" ry="14.4"/>
				
					<ellipse transform="matrix(0.7507 -0.6607 0.6607 0.7507 -48.3826 744.7755)" class="st4" cx="962.6" cy="436.5" rx="50.6" ry="14.4"/>
				
					<ellipse transform="matrix(0.7507 -0.6607 0.6607 0.7507 -34.3288 752.2451)" class="st4" cx="979.5" cy="421.6" rx="50.6" ry="14.4"/>
				
					<ellipse transform="matrix(0.7507 -0.6607 0.6607 0.7507 -20.2777 759.7053)" class="st4" cx="996.4" cy="406.7" rx="50.6" ry="14.4"/>
				
					<ellipse transform="matrix(0.7507 -0.6607 0.6607 0.7507 -6.2206 767.1687)" class="st4" cx="1013.3" cy="391.8" rx="50.6" ry="14.4"/>
				
					<ellipse transform="matrix(0.7507 -0.6607 0.6607 0.7507 7.8366 774.6322)" class="st4" cx="1030.2" cy="376.9" rx="50.6" ry="14.4"/>
				
					<ellipse transform="matrix(0.7507 -0.6607 0.6607 0.7507 21.8844 782.0986)" class="st4" cx="1047.2" cy="362.1" rx="50.6" ry="14.4"/>
				
					<ellipse transform="matrix(0.7507 -0.6607 0.6607 0.7507 35.9416 789.5621)" class="st4" cx="1064.1" cy="347.2" rx="50.6" ry="14.4"/>
				
					<ellipse transform="matrix(0.7507 -0.6607 0.6607 0.7507 49.9925 797.0222)" class="st4" cx="1081" cy="332.3" rx="50.6" ry="14.4"/>
				
					<ellipse transform="matrix(0.7507 -0.6607 0.6607 0.7507 64.0498 804.4857)" class="st4" cx="1097.9" cy="317.4" rx="50.6" ry="14.4"/>
			</g>
		</g>
		<g>
			<defs>
				<circle id="SVGID_9_" cx="960.3" cy="536.3" r="257.6"/>
			</defs>
			<clipPath id="SVGID_10_">
				<use xlink:href="#SVGID_9_"  style="overflow:visible;"/>
			</clipPath>
			<g class="st7">
				
					<ellipse transform="matrix(0.7507 -0.6607 0.6607 0.7507 -120.8815 808.2096)" class="st4" cx="1010.4" cy="564.3" rx="50.6" ry="14.4"/>
				
					<ellipse transform="matrix(0.7507 -0.6607 0.6607 0.7507 -106.8275 815.6794)" class="st4" cx="1027.3" cy="549.4" rx="50.6" ry="14.4"/>
				
					<ellipse transform="matrix(0.7507 -0.6607 0.6607 0.7507 -92.7703 823.1429)" class="st4" cx="1044.2" cy="534.5" rx="50.6" ry="14.4"/>
				
					<ellipse transform="matrix(0.7507 -0.6607 0.6607 0.7507 -78.7194 830.603)" class="st4" cx="1061.1" cy="519.6" rx="50.6" ry="14.4"/>
				
					<ellipse transform="matrix(0.7507 -0.6607 0.6607 0.7507 -64.6655 838.0727)" class="st4" cx="1078" cy="504.7" rx="50.6" ry="14.4"/>
				
					<ellipse transform="matrix(0.7507 -0.6607 0.6607 0.7507 -50.6145 845.5329)" class="st4" cx="1094.9" cy="489.8" rx="50.6" ry="14.4"/>
				
					<ellipse transform="matrix(0.7507 -0.6607 0.6607 0.7507 -36.5573 852.9963)" class="st4" cx="1111.9" cy="474.9" rx="50.6" ry="14.4"/>
				
					<ellipse transform="matrix(0.7507 -0.6607 0.6607 0.7507 -22.5001 860.4598)" class="st4" cx="1128.8" cy="460" rx="50.6" ry="14.4"/>
				
					<ellipse transform="matrix(0.7507 -0.6607 0.6607 0.7507 -8.4524 867.9263)" class="st4" cx="1145.7" cy="445.2" rx="50.6" ry="14.4"/>
				
					<ellipse transform="matrix(0.7507 -0.6607 0.6607 0.7507 5.6047 875.3896)" class="st4" cx="1162.6" cy="430.3" rx="50.6" ry="14.4"/>
				
					<ellipse transform="matrix(0.7507 -0.6607 0.6607 0.7507 19.662 882.8531)" class="st4" cx="1179.5" cy="415.4" rx="50.6" ry="14.4"/>
				
					<ellipse transform="matrix(0.7507 -0.6607 0.6607 0.7507 33.713 890.3133)" class="st4" cx="1196.4" cy="400.5" rx="50.6" ry="14.4"/>
			</g>
		</g>
		<g>
			<defs>
				<circle id="SVGID_11_" cx="960.3" cy="536.3" r="257.6"/>
			</defs>
			<clipPath id="SVGID_12_">
				<use xlink:href="#SVGID_11_"  style="overflow:visible;"/>
			</clipPath>
			<g class="st8">
				
					<ellipse transform="matrix(0.7507 -0.6607 0.6607 0.7507 -181.1379 836.7573)" class="st4" cx="1018.1" cy="658.4" rx="50.6" ry="14.4"/>
				
					<ellipse transform="matrix(0.7507 -0.6607 0.6607 0.7507 -167.0807 844.2207)" class="st4" cx="1035" cy="643.5" rx="50.6" ry="14.4"/>
				
					<ellipse transform="matrix(0.7507 -0.6607 0.6607 0.7507 -153.0331 851.6871)" class="st4" cx="1051.9" cy="628.6" rx="50.6" ry="14.4"/>
				
					<ellipse transform="matrix(0.7507 -0.6607 0.6607 0.7507 -138.9759 859.1506)" class="st4" cx="1068.8" cy="613.7" rx="50.6" ry="14.4"/>
				
					<ellipse transform="matrix(0.7507 -0.6607 0.6607 0.7507 -124.9186 866.614)" class="st4" cx="1085.7" cy="598.8" rx="50.6" ry="14.4"/>
				
					<ellipse transform="matrix(0.7507 -0.6607 0.6607 0.7507 -110.8676 874.0742)" class="st4" cx="1102.6" cy="583.9" rx="50.6" ry="14.4"/>
				
					<ellipse transform="matrix(0.7507 -0.6607 0.6607 0.7507 -96.8138 881.5439)" class="st4" cx="1119.6" cy="569" rx="50.6" ry="14.4"/>
				
					<ellipse transform="matrix(0.7507 -0.6607 0.6607 0.7507 -82.7627 889.0041)" class="st4" cx="1136.5" cy="554.2" rx="50.6" ry="14.4"/>
				
					<ellipse transform="matrix(0.7507 -0.6607 0.6607 0.7507 -68.7056 896.4675)" class="st4" cx="1153.4" cy="539.3" rx="50.6" ry="14.4"/>
				
					<ellipse transform="matrix(0.7507 -0.6607 0.6607 0.7507 -54.6483 903.931)" class="st4" cx="1170.3" cy="524.4" rx="50.6" ry="14.4"/>
				
					<ellipse transform="matrix(0.7507 -0.6607 0.6607 0.7507 -40.6007 911.3974)" class="st4" cx="1187.2" cy="509.5" rx="50.6" ry="14.4"/>
				
					<ellipse transform="matrix(0.7507 -0.6607 0.6607 0.7507 -26.5435 918.8608)" class="st4" cx="1204.1" cy="494.6" rx="50.6" ry="14.4"/>
			</g>
		</g>
		<g>
			<defs>
				<circle id="SVGID_13_" cx="960.3" cy="536.3" r="257.6"/>
			</defs>
			<clipPath id="SVGID_14_">
				<use xlink:href="#SVGID_13_"  style="overflow:visible;"/>
			</clipPath>
			<g class="st9">
				
					<ellipse transform="matrix(0.7507 -0.6607 0.6607 0.7507 -340.4702 680.0361)" class="st4" cx="730.8" cy="791.1" rx="50.6" ry="14.4"/>
				
					<ellipse transform="matrix(0.7507 -0.6607 0.6607 0.7507 -326.4192 687.4962)" class="st4" cx="747.7" cy="776.2" rx="50.6" ry="14.4"/>
				
					<ellipse transform="matrix(0.7507 -0.6607 0.6607 0.7507 -312.362 694.9597)" class="st4" cx="764.6" cy="761.3" rx="50.6" ry="14.4"/>
				
					<ellipse transform="matrix(0.7507 -0.6607 0.6607 0.7507 -298.3081 702.4294)" class="st4" cx="781.5" cy="746.4" rx="50.6" ry="14.4"/>
				
					<ellipse transform="matrix(0.7507 -0.6607 0.6607 0.7507 -284.2571 709.8895)" class="st4" cx="798.4" cy="731.6" rx="50.6" ry="14.4"/>
				
					<ellipse transform="matrix(0.7507 -0.6607 0.6607 0.7507 -270.1998 717.353)" class="st4" cx="815.3" cy="716.7" rx="50.6" ry="14.4"/>
				
					<ellipse transform="matrix(0.7507 -0.6607 0.6607 0.7507 -256.1489 724.8132)" class="st4" cx="832.2" cy="701.8" rx="50.6" ry="14.4"/>
				
					<ellipse transform="matrix(0.7507 -0.6607 0.6607 0.7507 -242.095 732.2828)" class="st4" cx="849.2" cy="686.9" rx="50.6" ry="14.4"/>
				
					<ellipse transform="matrix(0.7507 -0.6607 0.6607 0.7507 -228.0378 739.7463)" class="st4" cx="866.1" cy="672" rx="50.6" ry="14.4"/>
				
					<ellipse transform="matrix(0.7507 -0.6607 0.6607 0.7507 -213.9868 747.2065)" class="st4" cx="883" cy="657.1" rx="50.6" ry="14.4"/>
				
					<ellipse transform="matrix(0.7507 -0.6607 0.6607 0.7507 -199.9296 754.6699)" class="st4" cx="899.9" cy="642.2" rx="50.6" ry="14.4"/>
				
					<ellipse transform="matrix(0.7507 -0.6607 0.6607 0.7507 -185.8819 762.1363)" class="st4" cx="916.8" cy="627.3" rx="50.6" ry="14.4"/>
			</g>
		</g>
		<g>
			<defs>
				<circle id="SVGID_15_" cx="960.3" cy="536.3" r="257.6"/>
			</defs>
			<clipPath id="SVGID_16_">
				<use xlink:href="#SVGID_15_"  style="overflow:visible;"/>
			</clipPath>
			<g class="st10">
				
					<ellipse transform="matrix(0.7507 -0.6607 0.6607 0.7507 -327.0519 596.783)" class="st4" cx="627.2" cy="731.7" rx="50.6" ry="14.4"/>
				
					<ellipse transform="matrix(0.7507 -0.6607 0.6607 0.7507 -312.9948 604.2465)" class="st4" cx="644.1" cy="716.8" rx="50.6" ry="14.4"/>
				
					<ellipse transform="matrix(0.7507 -0.6607 0.6607 0.7507 -298.947 611.7129)" class="st4" cx="661" cy="701.9" rx="50.6" ry="14.4"/>
				
					<ellipse transform="matrix(0.7507 -0.6607 0.6607 0.7507 -284.8898 619.1763)" class="st4" cx="677.9" cy="687" rx="50.6" ry="14.4"/>
				
					<ellipse transform="matrix(0.7507 -0.6607 0.6607 0.7507 -270.8389 626.6365)" class="st4" cx="694.8" cy="672.2" rx="50.6" ry="14.4"/>
				
					<ellipse transform="matrix(0.7507 -0.6607 0.6607 0.7507 -256.7816 634.1)" class="st4" cx="711.7" cy="657.3" rx="50.6" ry="14.4"/>
				
					<ellipse transform="matrix(0.7507 -0.6607 0.6607 0.7507 -242.7277 641.5696)" class="st4" cx="728.7" cy="642.4" rx="50.6" ry="14.4"/>
				
					<ellipse transform="matrix(0.7507 -0.6607 0.6607 0.7507 -228.6768 649.0298)" class="st4" cx="745.6" cy="627.5" rx="50.6" ry="14.4"/>
				
					<ellipse transform="matrix(0.7507 -0.6607 0.6607 0.7507 -214.6195 656.4932)" class="st4" cx="762.5" cy="612.6" rx="50.6" ry="14.4"/>
				
					<ellipse transform="matrix(0.7507 -0.6607 0.6607 0.7507 -200.5623 663.9567)" class="st4" cx="779.4" cy="597.7" rx="50.6" ry="14.4"/>
				
					<ellipse transform="matrix(0.7507 -0.6607 0.6607 0.7507 -186.5146 671.4232)" class="st4" cx="796.3" cy="582.8" rx="50.6" ry="14.4"/>
				
					<ellipse transform="matrix(0.7507 -0.6607 0.6607 0.7507 -172.4575 678.8866)" class="st4" cx="813.2" cy="567.9" rx="50.6" ry="14.4"/>
			</g>
		</g>
		<g>
			<defs>
				<circle id="SVGID_17_" cx="960.3" cy="536.3" r="257.6"/>
			</defs>
			<clipPath id="SVGID_18_">
				<use xlink:href="#SVGID_17_"  style="overflow:visible;"/>
			</clipPath>
			<g class="st11">
				
					<ellipse transform="matrix(0.7507 -0.6607 0.6607 0.7507 -296.5574 555.7057)" class="st4" cx="588" cy="670.8" rx="50.6" ry="14.4"/>
				
					<ellipse transform="matrix(0.7507 -0.6607 0.6607 0.7507 -282.5098 563.1721)" class="st4" cx="604.9" cy="655.9" rx="50.6" ry="14.4"/>
				
					<ellipse transform="matrix(0.7507 -0.6607 0.6607 0.7507 -268.4525 570.6356)" class="st4" cx="621.8" cy="641" rx="50.6" ry="14.4"/>
				
					<ellipse transform="matrix(0.7507 -0.6607 0.6607 0.7507 -254.4016 578.0957)" class="st4" cx="638.7" cy="626.1" rx="50.6" ry="14.4"/>
				
					<ellipse transform="matrix(0.7507 -0.6607 0.6607 0.7507 -240.3444 585.5591)" class="st4" cx="655.6" cy="611.2" rx="50.6" ry="14.4"/>
				
					<ellipse transform="matrix(0.7507 -0.6607 0.6607 0.7507 -226.2905 593.0289)" class="st4" cx="672.6" cy="596.3" rx="50.6" ry="14.4"/>
				
					<ellipse transform="matrix(0.7507 -0.6607 0.6607 0.7507 -212.2395 600.489)" class="st4" cx="689.5" cy="581.4" rx="50.6" ry="14.4"/>
				
					<ellipse transform="matrix(0.7507 -0.6607 0.6607 0.7507 -198.1824 607.9525)" class="st4" cx="706.4" cy="566.6" rx="50.6" ry="14.4"/>
				
					<ellipse transform="matrix(0.7507 -0.6607 0.6607 0.7507 -184.1251 615.416)" class="st4" cx="723.3" cy="551.7" rx="50.6" ry="14.4"/>
				
					<ellipse transform="matrix(0.7507 -0.6607 0.6607 0.7507 -170.0774 622.8823)" class="st4" cx="740.2" cy="536.8" rx="50.6" ry="14.4"/>
				
					<ellipse transform="matrix(0.7507 -0.6607 0.6607 0.7507 -156.0202 630.3458)" class="st4" cx="757.1" cy="521.9" rx="50.6" ry="14.4"/>
				
					<ellipse transform="matrix(0.7507 -0.6607 0.6607 0.7507 -141.9692 637.806)" class="st4" cx="774.1" cy="507" rx="50.6" ry="14.4"/>
			</g>
		</g>
		<g>
			<defs>
				<circle id="SVGID_19_" cx="960.3" cy="536.3" r="257.6"/>
			</defs>
			<clipPath id="SVGID_20_">
				<use xlink:href="#SVGID_19_"  style="overflow:visible;"/>
			</clipPath>
			<g class="st12">
				
					<ellipse transform="matrix(0.7507 -0.6607 0.6607 0.7507 -446.895 693.8335)" class="st4" cx="695.8" cy="939" rx="50.6" ry="14.4"/>
				
					<ellipse transform="matrix(0.7507 -0.6607 0.6607 0.7507 -432.844 701.2936)" class="st4" cx="712.7" cy="924.1" rx="50.6" ry="14.4"/>
				
					<ellipse transform="matrix(0.7507 -0.6607 0.6607 0.7507 -418.7868 708.7571)" class="st4" cx="729.6" cy="909.2" rx="50.6" ry="14.4"/>
				
					<ellipse transform="matrix(0.7507 -0.6607 0.6607 0.7507 -404.7358 716.2172)" class="st4" cx="746.6" cy="894.3" rx="50.6" ry="14.4"/>
				
					<ellipse transform="matrix(0.7507 -0.6607 0.6607 0.7507 -390.6819 723.687)" class="st4" cx="763.5" cy="879.5" rx="50.6" ry="14.4"/>
				
					<ellipse transform="matrix(0.7507 -0.6607 0.6607 0.7507 -376.6247 731.1504)" class="st4" cx="780.4" cy="864.6" rx="50.6" ry="14.4"/>
				
					<ellipse transform="matrix(0.7507 -0.6607 0.6607 0.7507 -362.5737 738.6105)" class="st4" cx="797.3" cy="849.7" rx="50.6" ry="14.4"/>
				
					<ellipse transform="matrix(0.7507 -0.6607 0.6607 0.7507 -348.5165 746.074)" class="st4" cx="814.2" cy="834.8" rx="50.6" ry="14.4"/>
				
					<ellipse transform="matrix(0.7507 -0.6607 0.6607 0.7507 -334.4626 753.5437)" class="st4" cx="831.1" cy="819.9" rx="50.6" ry="14.4"/>
				
					<ellipse transform="matrix(0.7507 -0.6607 0.6607 0.7507 -320.4116 761.0038)" class="st4" cx="848.1" cy="805" rx="50.6" ry="14.4"/>
				
					<ellipse transform="matrix(0.7507 -0.6607 0.6607 0.7507 -306.3544 768.4673)" class="st4" cx="865" cy="790.1" rx="50.6" ry="14.4"/>
				
					<ellipse transform="matrix(0.7507 -0.6607 0.6607 0.7507 -292.3034 775.9275)" class="st4" cx="881.9" cy="775.2" rx="50.6" ry="14.4"/>
			</g>
		</g>
		<g>
			<defs>
				<circle id="SVGID_21_" cx="960.3" cy="536.3" r="257.6"/>
			</defs>
			<clipPath id="SVGID_22_">
				<use xlink:href="#SVGID_21_"  style="overflow:visible;"/>
			</clipPath>
			<g class="st13">
				
					<ellipse transform="matrix(0.7507 -0.6607 0.6607 0.7507 -270.3919 505.1701)" class="st4" cx="534.1" cy="610.8" rx="50.6" ry="14.4"/>
				
					<ellipse transform="matrix(0.7507 -0.6607 0.6607 0.7507 -256.338 512.6398)" class="st4" cx="551" cy="595.9" rx="50.6" ry="14.4"/>
				
					<ellipse transform="matrix(0.7507 -0.6607 0.6607 0.7507 -242.287 520.0999)" class="st4" cx="567.9" cy="581.1" rx="50.6" ry="14.4"/>
				
					<ellipse transform="matrix(0.7507 -0.6607 0.6607 0.7507 -228.2298 527.5634)" class="st4" cx="584.9" cy="566.2" rx="50.6" ry="14.4"/>
				
					<ellipse transform="matrix(0.7507 -0.6607 0.6607 0.7507 -214.1725 535.0268)" class="st4" cx="601.8" cy="551.3" rx="50.6" ry="14.4"/>
				
					<ellipse transform="matrix(0.7507 -0.6607 0.6607 0.7507 -200.1249 542.4932)" class="st4" cx="618.7" cy="536.4" rx="50.6" ry="14.4"/>
				
					<ellipse transform="matrix(0.7507 -0.6607 0.6607 0.7507 -186.0676 549.9567)" class="st4" cx="635.6" cy="521.5" rx="50.6" ry="14.4"/>
				
					<ellipse transform="matrix(0.7507 -0.6607 0.6607 0.7507 -172.0166 557.4168)" class="st4" cx="652.5" cy="506.6" rx="50.6" ry="14.4"/>
				
					<ellipse transform="matrix(0.7507 -0.6607 0.6607 0.7507 -157.9628 564.8865)" class="st4" cx="669.4" cy="491.7" rx="50.6" ry="14.4"/>
				
					<ellipse transform="matrix(0.7507 -0.6607 0.6607 0.7507 -143.9056 572.35)" class="st4" cx="686.4" cy="476.8" rx="50.6" ry="14.4"/>
				
					<ellipse transform="matrix(0.7507 -0.6607 0.6607 0.7507 -129.8545 579.8101)" class="st4" cx="703.3" cy="462" rx="50.6" ry="14.4"/>
				
					<ellipse transform="matrix(0.7507 -0.6607 0.6607 0.7507 -115.7974 587.2736)" class="st4" cx="720.2" cy="447.1" rx="50.6" ry="14.4"/>
			</g>
		</g>
	</g>
</g>
<text transform="matrix(1 0 0 1 792.235 740.2147)" class="st14 st15 st16">疫SHOPPING</text>
<g class="st17">
	<path class="st18" d="M1078.9,439c0,0,2,6.1,9.3,2.3s18.4-55.1,23.7-58.3c7.1-4.3,46.9-8,45.7-7c0,0,9.4-5.6-0.4-9.6
		c-11.7-1.4-48.1,1.8-48.1,1.8C1101.6,367.7,1081.1,429.3,1078.9,439z"/>
	<path class="st18" d="M823.1,629.6c0,0-61.3-148.9-58.3-162.1c3-13.2,13-27.1,33.6-30.9c6.3-1.2,265.3-13.6,265.3-13.6
		c9,1,43,23.2,74.1,49.4c10.4,7.5,15.4,12.6,18.2,29.1c-15.3,27.4-55.2,86.2-55.2,86.2c0,0,0.3,6.5-6.7,8.4
		c-11.3,3.1-235.5,43.9-235.5,43.9S826.9,641.5,823.1,629.6z"/>
	
		<ellipse transform="matrix(0.1602 -0.9871 0.9871 0.1602 268.9511 1537.4526)" class="st18" cx="1038" cy="610.7" rx="19.2" ry="19.2"/>
	<path class="st18" d="M1107.9,483.7c-0.5,1.3-0.3,2.8,0.7,3.7c1.6,1.6,4.6,3,10,0.4c8.9-4.3,22.7-62.8,29.2-66.5
		c8.7-5,57.4-9.3,56-8.1c0,0,11.6-6.4-0.4-11c-12.8-1.4-50.1,1.5-57.6,2.1c-1,0.1-1.9,0.6-2.5,1.4
		C1135.8,415.7,1112.3,473.2,1107.9,483.7z"/>
	<circle class="st18" cx="925" cy="630.8" r="19.2"/>
</g>
<path class="st19" d="M1074.6,436.4c0,0,2,6.1,9.3,2.3s18.4-55.1,23.7-58.3c7.1-4.3,46.9-8,45.7-7c0,0,9.4-5.6-0.4-9.6
	c-11.7-1.4-48.1,1.8-48.1,1.8C1097.3,365.1,1076.8,426.7,1074.6,436.4z"/>
<ellipse transform="matrix(0.9993 -3.740000e-02 3.740000e-02 0.9993 -23.5263 36.4812)" class="st20" cx="963.3" cy="647.1" rx="158.2" ry="17.8"/>
<text transform="matrix(1 0 0 1 788.6713 737.2153)" class="st21 st15 st16">疫SHOPPING</text>
<path class="st22" d="M818.8,627c0,0-61.3-148.9-58.3-162.1c3-13.2,13-27.1,33.6-30.9c6.3-1.2,265.3-13.6,265.3-13.6
	c9,1,43,23.2,74.1,49.4c10.4,7.5,15.4,12.6,18.2,29.1c-15.3,27.4-55.2,86.2-55.2,86.2c0,0,0.3,6.5-6.7,8.4
	c-11.3,3.1-235.5,43.9-235.5,43.9S822.6,638.9,818.8,627z"/>
<ellipse transform="matrix(0.1602 -0.9871 0.9871 0.1602 267.9014 1531.0204)" class="st4" cx="1033.7" cy="608.1" rx="19.2" ry="19.2"/>
<ellipse transform="matrix(0.1602 -0.9871 0.9871 0.1602 267.888 1531.1846)" class="st19" cx="1033.8" cy="608.2" rx="15.9" ry="15.9"/>
<circle class="st4" cx="1033.8" cy="608.2" r="12.4"/>
<circle class="st4" cx="1111.1" cy="482.4" r="12.1"/>
<path class="st19" d="M1103.6,481.1c-0.5,1.3-0.3,2.8,0.7,3.7c1.6,1.6,4.6,3,10,0.4c8.9-4.3,22.7-62.8,29.2-66.5
	c8.7-5,57.4-9.3,56-8.1c0,0,11.6-6.4-0.4-11c-12.8-1.4-50.1,1.5-57.6,2.1c-1,0.1-1.9,0.6-2.5,1.4
	C1131.5,413.1,1108,470.6,1103.6,481.1z"/>
<circle class="st4" cx="920.7" cy="628.2" r="19.2"/>
<circle class="st19" cx="920.8" cy="628.3" r="15.9"/>
<circle class="st4" cx="920.8" cy="628.3" r="12.4"/>
<g>
	<path class="st23" d="M1197.2,491.5c0.6-2.5,3.9-3.2,5.4-1c4.9,7.6,15.1,9.9,22.8,4.9c7.6-4.9,9.9-15.1,4.9-22.8
		c-0.9-1.4-0.5-3.2,0.9-4.1c1.4-0.9,3.2-0.5,4.1,0.9c6.7,10.4,3.7,24.3-6.7,31c-10.4,6.7-24.3,3.7-30.9-6.7
		C1197.1,493,1197,492.2,1197.2,491.5L1197.2,491.5z"/>
	<path class="st24" d="M1162.2,397.4c10.4-6.7,24.3-3.7,30.9,6.7c0.9,1.4,0.5,3.2-0.9,4.1c-1.4,0.9-3.2,0.5-4.1-0.9
		c-4.9-7.6-15.1-9.9-22.8-4.9c-7.6,4.9-9.9,15.1-4.9,22.8c0.9,1.4,0.5,3.2-0.9,4.1c-1.4,0.9-3.2,0.5-4.1-0.9
		C1148.8,418,1151.8,404.1,1162.2,397.4z"/>
	<path class="st25" d="M1191.6,497.9c-24.8-32.3-23.8-31-23.9-31.1c-0.7-1-18.4-34.6-18.4-34.6c-0.7-1.4-0.3-3,1-3.9
		c41.3-26.6-3.7,2.4,44.9-28.9c1.3-0.8,3-0.5,3.9,0.7c27.7,36.1,23.2,29.9,25.1,33.4c1.1,2.1,16.1,30.3,17.2,32.4
		c0.7,1.4,0.3,3-1,3.9c-1.2,0.8-43.3,27.9-44.9,28.9C1194.2,499.4,1192.5,499.1,1191.6,497.9L1191.6,497.9z"/>
	<path class="st26" d="M1191.6,497.9c-24.8-32.3-23.8-31-23.9-31.1c47.6-30.7,54.4-35.1,55.3-35.5c0.4,0.5,12.4,23.3,18.4,34.6
		c0.7,1.4,0.3,3-1,3.9c-1.5,0.9-42.6,27.4-44.9,28.9C1194.2,499.4,1192.5,499.1,1191.6,497.9L1191.6,497.9z"/>
	<path class="st27" d="M1219.7,463.1c-17.4-20.8-15.5-17.9-27.2-42.2c-0.7-1.5-0.1-3.2,1.4-3.9c1.5-0.7,3.2-0.1,3.9,1.4
		c11.6,24.3,10,21.4,26.4,41c1.1,1.2,0.9,3.1-0.4,4.2C1222.6,464.5,1220.7,464.4,1219.7,463.1z"/>
	<path class="st28" d="M1204,443.4l5-3.2c3.4,5.3,5.2,7.2,15.2,19.2c1.1,1.2,0.9,3.1-0.4,4.2c-1.2,1-3.1,0.9-4.2-0.4
		C1209.8,451.4,1207.7,449.1,1204,443.4L1204,443.4z"/>
	<path class="st27" d="M1195.9,478.4c-17.2-20.4-15.7-17.9-27.2-42.2c-0.7-1.5-0.1-3.2,1.4-3.9s3.2-0.1,3.9,1.4
		c11.4,24,10,21.5,26.4,41c1.1,1.2,0.9,3.1-0.3,4.2C1198.8,479.8,1197,479.7,1195.9,478.4L1195.9,478.4z"/>
	<path class="st28" d="M1200.1,478.8c-1.2,1-3.1,0.9-4.2-0.4c-9.6-11.4-11.9-13.9-15.7-19.8l5-3.2c3.4,5.3,5.1,7.1,15.3,19.1
		C1201.5,475.9,1201.3,477.7,1200.1,478.8L1200.1,478.8z"/>
	<path class="st27" d="M1207.8,470.8c-17.4-20.7-15.6-18-27.2-42.2c-0.7-1.5-0.1-3.2,1.4-3.9s3.2-0.1,3.9,1.4
		c11.6,24.2,10,21.5,26.4,41c1.1,1.2,0.9,3.1-0.4,4.2S1208.9,472,1207.8,470.8L1207.8,470.8z"/>
	<path class="st28" d="M1192.1,451l5-3.2c3.5,5.4,5.3,7.4,15.2,19.2c1.1,1.2,0.9,3.1-0.4,4.2c-1.2,1-3.1,0.9-4.2-0.4
		C1198,459.1,1195.8,456.8,1192.1,451z"/>
</g>
<polyline class="st19" points="1175.2,412.2 1195.2,399.3 1173.7,399.8 "/>
<g>
	<defs>
		<path id="SVGID_23_" d="M816.1,623.8c0,0-61.3-148.9-58.3-162.1c3-13.2,13-27.1,33.6-30.9c6.3-1.2,265.3-13.6,265.3-13.6
			c9,1,43,23.2,74.1,49.4c10.4,7.5,15.4,12.6,18.2,29.1c-15.3,27.4-55.2,86.2-55.2,86.2c0,0,0.3,6.5-6.7,8.4
			c-11.3,3.1-235.5,43.9-235.5,43.9S819.9,635.7,816.1,623.8z"/>
	</defs>
	<clipPath id="SVGID_24_">
		<use xlink:href="#SVGID_23_"  style="overflow:visible;"/>
	</clipPath>
	<circle class="st29" cx="805.2" cy="448.9" r="92.4"/>
</g>
<text transform="matrix(1 0 0 1 785.2887 737.215)" class="st21 st15 st16">疫SHOPPING</text>
<text transform="matrix(1 0 0 1 786.8528 737.215)" class="st21 st15 st16">疫SHOPPING</text>
</svg>
